<svg width="490.667" height="490.667" xmlns="http://www.w3.org/2000/svg">

    <g>
        <title>background</title>
        <rect fill="none" id="canvas_background" height="402" width="582" y="-1" x="-1"/>
    </g>
    <g>
        <title>Layer 1</title>
        <path id="svg_1" fill="#4CAF50"
              d="m245.333,0c-135.494,0 -245.333,109.839 -245.333,245.333s109.839,245.333 245.333,245.333s245.333,-109.839 245.333,-245.333c-0.152,-135.43 -109.902,-245.18 -245.333,-245.333z"/>
        <path transform="rotate(90 256.1749877929688,245.3341979980469) " id="svg_2" fill="#FAFAFA"
              d="m274.219,88.448c-4.16,-4.171 -10.914,-4.179 -15.085,-0.019c-2.011,2.006 -3.139,4.731 -3.134,7.571l0,74.667l-159.829,0c-5.891,0 -10.667,4.776 -10.667,10.667l0,128c0,5.891 4.776,10.667 10.667,10.667l159.829,0l0,74.667c-0.011,5.891 4.757,10.675 10.648,10.686c2.84,0.005 5.565,-1.123 7.571,-3.134l149.504,-149.333c4.164,-4.165 4.164,-10.917 0,-15.083l-149.504,-149.356z"/>
        <g id="svg_3"/>
        <g id="svg_4"/>
        <g id="svg_5"/>
        <g id="svg_6"/>
        <g id="svg_7"/>
        <g id="svg_8"/>
        <g id="svg_9"/>
        <g id="svg_10"/>
        <g id="svg_11"/>
        <g id="svg_12"/>
        <g id="svg_13"/>
        <g id="svg_14"/>
        <g id="svg_15"/>
        <g id="svg_16"/>
        <g id="svg_17"/>
    </g>
</svg>