<svg xmlns="http://www.w3.org/2000/svg" xmlns:se="http://svg-edit.googlecode.com" xmlns:xlink="http://www.w3.org/1999/xlink" xmlns:dc="http://purl.org/dc/elements/1.1/" xmlns:cc="http://creativecommons.org/ns#" xmlns:rdf="http://www.w3.org/1999/02/22-rdf-syntax-ns#" xmlns:inkscape="http://www.inkscape.org/namespaces/inkscape" width="114.58730084243115" height="114.42857045543445" style="">                                    <title>my vector image</title>                                    <!-- Created with Vector Paint - http://www.vectorpaint.yaks.com/ https://chrome.google.com/webstore/detail/hnbpdiengicdefcjecjbnjnoifekhgdo -->                                    <rect id="backgroundrect" width="100%" height="100%" x="0" y="0" fill="#FFFFFF" stroke="none" class="" style="" opacity="0"/>                                <g class="currentLayer" style=""><title>Layer 1</title><g class="selected"><path fill="none" stroke="#bb5b43" stroke-opacity="1" stroke-width="2" stroke-dasharray="none" stroke-linejoin="round" stroke-linecap="butt" stroke-dashoffset="" fill-rule="nonzero" opacity="1" marker-start="" marker-mid="" marker-end="" d="M2.3650762330059365,58.13521973392503 C2.3650762330059365,27.58404941578104 26.878887771043882,2.837601458084407 57.142852632819086,2.837601458084407 C87.40681749459435,2.837601458084407 111.92062903263223,27.58404941578104 111.92062903263223,58.13521973392503 C111.92062903263223,88.68639005206904 87.40681749459435,113.43283800976567 57.142852632819086,113.43283800976567 C26.878887771043882,113.43283800976567 2.3650762330059365,88.68639005206904 2.3650762330059365,58.13521973392503 z" id="svg_24" class=""/><path fill="#bb5b43" fill-opacity="1" stroke="none" stroke-width="2" stroke-dasharray="none" stroke-linejoin="round" stroke-linecap="butt" stroke-dashoffset="" fill-rule="nonzero" opacity="1" marker-start="" marker-mid="" marker-end="" d="M4.5238037109375,58.095237731933594 C4.5238037109375,28.81346977613248 28.018278849059072,5.095237731933594 57.0238037109375,5.095237731933594 C86.02932857281593,5.095237731933594 109.5238037109375,28.81346977613248 109.5238037109375,58.095237731933594 C109.5238037109375,87.37700568773471 86.02932857281593,111.0952377319336 57.0238037109375,111.0952377319336 C28.018278849059072,111.0952377319336 4.5238037109375,87.37700568773471 4.5238037109375,58.095237731933594 z" id="svg_4" class=""/><path fill="#7f3c2c" fill-opacity="1" stroke="none" stroke-width="2" stroke-dasharray="none" stroke-linejoin="round" stroke-linecap="butt" stroke-dashoffset="" fill-rule="nonzero" opacity="1" marker-start="" marker-mid="" marker-end="" d="M46.634918212890625,92.50793612003326 C46.634918212890625,85.3256156780443 52.22884086482435,79.50793612003326 59.134918212890625,79.50793612003326 C66.0409955609569,79.50793612003326 71.63491821289062,85.3256156780443 71.63491821289062,92.50793612003326 C71.63491821289062,99.69025656202223 66.0409955609569,105.50793612003326 59.134918212890625,105.50793612003326 C52.22884086482435,105.50793612003326 46.634918212890625,99.69025656202223 46.634918212890625,92.50793612003326 z" id="svg_19" class=""/></g></g></svg>