<svg xmlns="http://www.w3.org/2000/svg" xmlns:se="http://svg-edit.googlecode.com" xmlns:xlink="http://www.w3.org/1999/xlink" xmlns:dc="http://purl.org/dc/elements/1.1/" xmlns:cc="http://creativecommons.org/ns#" xmlns:rdf="http://www.w3.org/1999/02/22-rdf-syntax-ns#" xmlns:inkscape="http://www.inkscape.org/namespaces/inkscape" width="45" height="43" style="">                                    <title>my vector image</title>                                    <!-- Created with Vector Paint - http://www.vectorpaint.yaks.com/ https://chrome.google.com/webstore/detail/hnbpdiengicdefcjecjbnjnoifekhgdo -->                                    <rect id="backgroundrect" width="100%" height="100%" x="0" y="0" fill="#FFFFFF" stroke="none" class="" style="" opacity="0"/>                                <g class="currentLayer" style=""><title>Layer 1</title><path fill="none" stroke="#526aaf" stroke-opacity="1" stroke-width="1" stroke-dasharray="none" stroke-linejoin="round" stroke-linecap="butt" stroke-dashoffset="" fill-rule="nonzero" opacity="1" marker-start="" marker-mid="" marker-end="" d="M1.000000028064877,21.458827052350262 C1.000000028064877,10.155607685111669 10.532017199250955,0.9999999976484018 22.299939632814002,0.9999999976484018 C34.06786206637708,0.9999999976484018 43.59987923756313,10.155607685111669 43.59987923756313,21.458827052350262 C43.59987923756313,32.76204641958888 34.06786206637708,41.917654107052144 22.299939632814002,41.917654107052144 C10.532017199250955,41.917654107052144 1.000000028064877,32.76204641958888 1.000000028064877,21.458827052350262 z" id="svg_24" class="selected"/><path fill="#4777b9" fill-opacity="1" stroke="none" stroke-width="2" stroke-dasharray="none" stroke-linejoin="round" stroke-linecap="butt" stroke-dashoffset="" fill-rule="nonzero" opacity="1" marker-start="" marker-mid="" marker-end="" d="M2.23861,21.437C2.23861,10.82678 11.18591,2.23251 22.23197,2.23251C33.27803,2.23251 42.22534,10.82678 42.22534,21.437C42.22534,32.04721 33.27803,40.64149 22.23197,40.64149C11.18591,40.64149 2.23861,32.04721 2.23861,21.437z" id="svg_4" class=""/><path fill="#2f477d" fill-opacity="1" stroke="none" stroke-width="2" stroke-dasharray="none" stroke-linejoin="round" stroke-linecap="butt" stroke-dashoffset="" fill-rule="nonzero" opacity="1" marker-start="" marker-mid="" marker-end="" d="M18.833008146346636,36.71036459059741 C18.833008146346636,34.730497042144336 20.45365162148541,33.12680432789736 22.45444603523697,33.12680432789736 C24.455240448988533,33.12680432789736 26.075883924127304,34.730497042144336 26.075883924127304,36.71036459059741 C26.075883924127304,38.690232139050465 24.455240448988533,40.29392485329744 22.45444603523697,40.29392485329744 C20.45365162148541,40.29392485329744 18.833008146346636,38.690232139050465 18.833008146346636,36.71036459059741 z" id="svg_19" class=""/></g></svg>